<svg xmlns="http://www.w3.org/2000/svg" viewBox="0 0 400.000000 219.000000">
<g transform="translate(0.000000,219.000000) scale(0.100000,-0.100000)"
fill="currentColor" stroke="none">
<path d="M975 2181 c-22 -5 -30 -12 -28 -26 1 -18 0 -18 -10 -4 -9 12 -18 14
-35 8 -26 -10 -26 -7 -7 -55 14 -36 14 -37 0 -19 -9 11 -21 28 -28 38 -12 18
-15 16 -57 -21 -44 -39 -44 -41 -25 -56 19 -14 19 -15 -10 -13 -26 2 -33 -4
-50 -38 -10 -22 -20 -59 -21 -83 -1 -24 -5 -46 -8 -49 -3 -4 -6 -26 -6 -51 0
-54 -33 -124 -75 -160 l-30 -25 43 5 c90 12 170 83 194 173 9 34 14 40 24 31
9 -9 10 -26 3 -61 -9 -47 -16 -61 -58 -116 l-21 -26 54 0 c37 0 66 -7 89 -21
40 -23 47 -21 48 22 1 22 5 13 16 -32 15 -63 15 -64 101 -128 48 -35 90 -64
93 -64 7 0 29 158 29 207 0 25 -8 36 -55 66 -30 20 -59 46 -66 58 -6 12 -7 20
-2 18 4 -2 36 -19 70 -36 l62 -33 3 -57 c2 -31 8 -58 14 -60 7 -3 11 33 12
112 1 111 0 116 -21 125 -17 7 -18 9 -5 9 11 1 15 6 12 16 -4 8 -1 15 5 15 20
0 11 26 -25 71 l-36 44 44 -46 c42 -44 46 -46 69 -33 13 7 50 13 82 14 60 0
63 3 47 44 -7 21 -17 26 -42 26 l-33 1 29 12 28 12 -47 53 c-34 37 -51 50 -58
43 -17 -17 -31 -13 -17 4 11 13 10 18 -6 30 -25 19 -110 51 -156 58 l-37 6 -8
-52 -8 -52 -5 50 c-5 54 -14 60 -75 46z m-55 -216 c-7 -8 -17 -15 -23 -15 -6
0 -2 7 9 15 25 19 30 19 14 0z m208 -23 c22 -11 42 -19 45 -16 2 2 10 -3 18
-13 12 -14 12 -15 0 -9 -9 6 -12 5 -9 -5 3 -8 10 -13 16 -12 7 2 9 -4 5 -14
-5 -12 -3 -14 7 -8 9 6 11 4 5 -5 -5 -9 -14 -4 -32 19 -30 38 -71 60 -143 77
l-55 13 51 -3 c29 -1 70 -12 92 -24z m-229 -19 c-6 -7 -16 -10 -22 -6 -6 4 -8
0 -5 -9 4 -8 0 -15 -8 -15 -13 0 -11 9 7 33 5 6 15 11 24 11 11 0 12 -4 4 -14z"/>
<path d="M2990 1603 c0 -21 5 -23 46 -23 l45 0 -3 -95 -3 -95 28 0 27 0 0 96
0 96 45 -4 c42 -3 45 -2 45 22 l0 25 -115 0 c-113 0 -115 0 -115 -22z"/>
<path d="M824 1605 c-4 -8 -25 -23 -48 -34 -22 -10 -54 -30 -71 -45 -16 -15
-52 -42 -79 -59 -65 -42 -70 -61 -9 -31 26 12 64 25 83 28 29 5 26 2 -16 -13
-81 -30 -116 -51 -161 -94 -50 -48 -53 -57 -17 -57 19 0 38 13 65 44 38 43
127 96 158 96 9 -1 -6 -13 -34 -27 -54 -28 -102 -65 -123 -94 -12 -18 -9 -19
57 -19 l71 0 15 37 c19 44 50 80 85 98 33 16 100 26 100 14 0 -5 -7 -9 -15 -9
-32 0 -96 -42 -125 -82 -35 -48 -37 -58 -11 -58 11 0 28 15 41 35 12 19 30 40
40 45 15 8 14 2 -8 -38 -23 -40 -27 -59 -27 -127 0 -88 18 -139 73 -205 l29
-34 21 40 c20 39 20 40 1 64 -25 31 -69 115 -69 131 0 6 18 -16 40 -49 60 -90
65 -92 79 -26 13 55 12 56 -16 92 -86 110 -86 118 1 49 l49 -38 28 43 c15 24
24 46 20 50 -3 4 -31 21 -61 37 -65 36 -56 38 33 11 l65 -20 -44 -85 c-24 -47
-44 -97 -44 -111 l0 -25 33 25 c30 23 97 56 113 56 4 0 -21 -18 -56 -41 -46
-29 -60 -43 -52 -51 20 -20 116 -21 203 -2 88 19 161 22 266 11 60 -6 94 5 54
18 -11 3 -31 15 -45 26 -25 20 -25 21 -10 52 35 68 32 67 199 67 161 0 166 -1
164 -48 0 -13 -3 -12 -11 4 -14 30 -47 34 -182 27 l-114 -6 -19 -34 -18 -35
35 -29 c19 -16 43 -29 55 -29 11 0 79 17 150 38 124 36 130 40 136 68 l7 29 1
-29 c2 -42 44 -92 84 -100 41 -8 94 10 108 35 9 18 32 19 664 19 359 0 655 -4
657 -8 2 -5 41 -5 88 0 57 6 92 6 108 -1 29 -14 53 -14 29 0 -13 8 -15 14 -7
30 7 13 7 25 1 37 -7 13 -6 23 1 30 15 15 3 15 -23 1 -14 -7 -46 -7 -107 0
-57 7 -88 8 -90 1 -2 -7 -237 -10 -669 -10 -623 0 -667 1 -679 18 -11 15 -44
18 -256 28 -134 7 -253 10 -265 7 -24 -5 -88 -93 -98 -136 -6 -22 -2 -28 32
-47 25 -14 30 -19 13 -14 -35 9 -70 32 -70 47 0 15 56 113 70 122 21 13 9 20
-29 17 -25 -3 -52 3 -79 17 -27 14 -78 25 -144 32 -78 8 -117 18 -162 40 -33
16 -72 29 -87 29 -15 0 -50 16 -79 35 -40 27 -62 35 -96 35 -24 0 -44 4 -44 8
0 12 57 13 86 2 20 -8 26 -5 39 18 l16 27 -6 -31 c-5 -27 -1 -35 29 -57 19
-15 46 -27 60 -27 13 0 37 -5 51 -10 l26 -10 -21 30 c-12 16 -25 30 -31 30 -5
0 -30 21 -56 46 -68 65 -136 93 -149 59z m526 -391 l35 -14 -55 5 c-30 3 -73
5 -95 6 -32 0 -36 2 -20 9 30 13 96 10 135 -6z"/>
<path d="M1846 1599 c-31 -24 -35 -68 -7 -93 10 -9 46 -20 84 -24 73 -9 82
-14 74 -36 -9 -23 -67 -29 -117 -12 -42 14 -59 10 -60 -15 0 -15 56 -29 114
-29 76 0 116 24 116 69 0 38 -28 60 -86 67 -27 3 -59 7 -71 10 -24 5 -31 28
-12 40 21 13 88 7 113 -10 24 -15 26 -15 36 3 14 27 14 28 -21 40 -54 19 -133
14 -163 -10z"/>
<path d="M2119 1606 c8 -10 11 -48 9 -115 l-3 -101 29 0 c27 0 28 1 25 44 l-4
44 74 4 c62 3 76 7 92 27 26 31 24 57 -6 86 -22 23 -31 25 -126 25 -87 0 -100
-2 -90 -14z m187 -41 c12 -30 -16 -46 -75 -43 -57 3 -58 4 -52 48 0 6 28 10
61 10 45 0 62 -4 66 -15z"/>
<path d="M2475 1610 c3 -5 -10 -40 -29 -77 -18 -37 -41 -85 -49 -105 -16 -38
-16 -38 7 -38 17 0 26 7 30 25 6 23 11 25 66 25 48 0 61 -4 69 -19 6 -10 7
-21 4 -25 -3 -3 14 -6 38 -6 24 0 39 4 33 8 -15 9 -104 187 -104 207 0 11 -10
15 -36 15 -20 0 -33 -4 -29 -10z m48 -92 l16 -38 -40 0 -40 0 23 39 c12 22 23
39 24 38 1 -1 9 -19 17 -39z"/>
<path d="M2698 1505 l3 -115 27 0 c26 0 27 2 24 45 l-4 45 36 0 c33 0 40 -5
64 -45 23 -38 32 -44 59 -45 l33 0 -33 46 c-19 28 -27 48 -21 51 25 8 43 29
49 55 5 21 1 33 -19 52 -23 24 -31 26 -123 26 l-98 0 3 -115z m182 60 c23 -27
-5 -45 -71 -45 -59 0 -59 0 -59 30 0 30 0 30 59 30 40 0 63 -5 71 -15z"/>
<path d="M3345 1610 c3 -5 -17 -54 -45 -109 -27 -56 -50 -103 -50 -106 0 -3
11 -5 24 -5 17 0 26 7 30 25 6 23 11 25 66 25 48 0 61 -4 69 -19 6 -10 7 -21
4 -25 -3 -3 14 -6 38 -6 24 0 39 4 33 8 -16 10 -114 208 -107 216 4 3 -10 6
-31 6 -21 0 -35 -4 -31 -10z m48 -92 l16 -38 -40 0 -39 0 20 41 c12 23 23 39
25 37 1 -1 10 -20 18 -40z"/>
<path d="M3570 1505 l0 -115 25 0 c25 0 25 1 25 79 l0 80 73 -79 c54 -58 79
-78 99 -79 l27 -1 3 115 3 115 -27 0 -28 0 0 -77 0 -77 -60 59 c-33 33 -63 67
-66 77 -4 13 -16 18 -40 18 l-34 0 0 -115z"/>
<path d="M1206 1503 c-11 -67 -8 -73 37 -93 23 -11 56 -20 72 -20 17 0 50 -9
74 -20 45 -21 111 -27 111 -10 0 28 -231 180 -275 180 -7 0 -15 -17 -19 -37z"/>
<path d="M495 1370 c-32 -33 -55 -63 -51 -67 4 -4 17 6 29 22 12 17 37 47 56
68 51 56 33 44 -34 -23z"/>
<path d="M3666 1305 c-24 -37 -3 -45 114 -46 68 0 98 -3 85 -9 -11 -5 -61 -9
-111 -9 -97 -1 -114 -10 -89 -44 16 -23 25 -22 173 14 111 28 170 49 135 49
-6 0 -74 15 -152 34 l-140 33 -15 -22z"/>
<path d="M4 1265 c-14 -56 -14 -55 385 -53 l366 3 3 38 3 37 -375 0 -376 0 -6
-25z"/>
<path d="M350 1156 c-35 -79 -54 -168 -54 -266 -1 -89 19 -220 33 -220 3 0 17
26 31 58 19 44 25 75 26 137 1 44 6 107 12 140 6 33 13 90 16 128 5 66 5 67
-20 67 -20 0 -29 -9 -44 -44z"/>
<path d="M436 1178 c-3 -13 -7 -99 -9 -193 l-3 -170 -41 -95 c-66 -152 -78
-197 -78 -285 1 -67 5 -88 28 -132 24 -46 135 -169 144 -159 2 1 -8 23 -21 47
-58 105 -55 211 8 376 45 117 60 193 53 273 -5 53 -4 60 5 40 6 -14 12 -65 12
-115 0 -74 -5 -110 -33 -203 -30 -103 -33 -123 -29 -215 3 -85 9 -112 32 -164
45 -100 85 -125 218 -141 l67 -8 -79 78 c-152 151 -187 276 -140 505 27 132
24 213 -14 367 -18 71 -27 127 -24 162 l3 54 -47 0 c-41 0 -48 -3 -52 -22z"/>
<path d="M552 1128 c3 -40 18 -109 33 -153 35 -105 43 -249 22 -393 -12 -73
-13 -118 -7 -158 25 -152 139 -289 321 -387 l64 -34 68 22 68 22 -68 22 c-119
39 -245 124 -314 213 -31 39 -27 37 46 -25 94 -80 211 -141 310 -162 90 -19
127 -19 259 2 l108 16 -103 37 c-182 65 -261 108 -366 197 -77 66 -98 105 -24
46 184 -149 464 -254 726 -274 129 -10 270 -30 333 -48 84 -25 -51 67 -164
111 -41 16 -153 49 -247 74 -95 25 -209 60 -255 79 -166 67 -323 188 -418 321
-91 128 -168 327 -182 473 -6 58 -10 66 -29 69 -21 3 -23 -1 -24 -50 0 -39 -3
-48 -9 -33 -5 11 -9 35 -9 53 -1 28 -4 32 -27 32 l-27 0 5 -82 c4 -69 12 -102
50 -193 52 -125 59 -152 87 -324 25 -147 50 -199 131 -275 31 -29 92 -71 136
-94 86 -45 87 -51 3 -26 -164 49 -270 152 -303 294 -9 36 -19 115 -24 175 -8
95 -16 126 -55 225 -50 128 -63 195 -49 258 l10 42 -40 0 -41 0 5 -72z m323
-460 c96 -148 229 -263 396 -343 110 -52 104 -57 -15 -14 -231 84 -408 274
-485 523 -31 102 -25 102 18 -1 22 -50 60 -125 86 -165z"/>
<path d="M2750 1131 l-105 -6 0 -112 0 -112 113 -3 112 -3 0 25 c0 25 0 25
-85 22 l-85 -3 0 31 0 32 55 -4 c53 -3 55 -2 55 22 0 24 -2 25 -55 22 l-55 -4
0 32 0 32 85 -3 c83 -4 85 -3 85 19 0 12 -3 21 -7 20 -5 -1 -55 -4 -113 -7z"/>
<path d="M1582 1118 c-39 -8 -43 -12 -38 -31 29 -102 36 -142 36 -217 0 -151
-45 -272 -146 -394 l-56 -68 17 -39 c10 -21 21 -39 25 -39 18 0 142 145 175
205 67 120 89 202 89 345 1 129 -23 251 -48 249 -6 -1 -31 -6 -54 -11z"/>
<path d="M2280 1015 l0 -115 28 0 27 0 -3 82 -2 83 41 -77 c23 -43 45 -78 49
-78 4 0 26 35 49 78 l41 77 -2 -83 -3 -82 30 0 30 0 -3 115 -3 115 -32 -1
c-29 0 -35 -6 -63 -62 -17 -33 -35 -62 -40 -64 -5 -2 -25 26 -44 62 -32 59
-38 65 -67 65 l-33 0 0 -115z"/>
<path d="M2930 1015 l0 -115 94 0 c78 0 97 3 119 20 56 44 58 140 5 185 -27
23 -38 25 -124 25 l-94 0 0 -115z m188 61 c21 -21 23 -96 3 -119 -10 -13 -30
-17 -77 -17 l-64 0 0 73 c0 41 3 77 8 81 13 14 112 0 130 -18z"/>
<path d="M3266 1109 c-34 -27 -35 -72 -2 -94 13 -9 53 -19 87 -23 48 -5 65
-11 67 -24 7 -36 -102 -42 -143 -8 -10 9 -16 6 -25 -10 -6 -12 -10 -23 -8 -25
37 -31 147 -34 196 -5 24 15 32 27 32 48 0 42 -30 63 -100 71 -72 9 -95 25
-65 47 24 18 91 11 116 -12 16 -14 18 -14 29 6 6 12 10 23 8 25 -38 32 -153
35 -192 4z"/>
<path d="M786 1085 c19 -114 90 -286 167 -400 52 -77 177 -202 186 -186 5 8
11 3 18 -12 6 -13 27 -34 47 -45 l36 -21 -5 27 c-5 24 -4 23 14 -9 13 -24 36
-44 65 -58 25 -11 48 -21 51 -21 3 0 -8 26 -24 58 -32 63 -41 69 -176 118 -68
24 -69 24 -24 20 25 -3 67 -12 93 -21 27 -9 50 -14 54 -11 3 3 0 24 -7 46 -11
36 -15 40 -46 40 -18 0 -40 3 -48 6 -11 4 -17 -2 -19 -18 -3 -21 -4 -21 -15 8
l-11 31 57 -1 56 -1 -1 40 c0 22 -4 52 -7 68 -7 24 -12 27 -50 28 l-42 0 35
12 c39 13 47 36 31 80 -8 21 -18 27 -43 28 l-33 2 35 6 c33 6 35 9 38 47 4 51
-8 62 -87 75 -84 15 -70 24 16 10 74 -11 93 -3 108 46 6 22 5 22 -97 20 -57
-1 -117 2 -135 6 -30 8 -33 6 -39 -20 -3 -15 -12 -33 -20 -39 -7 -6 -24 -30
-38 -54 l-25 -44 -35 37 c-19 20 -46 60 -60 89 l-26 53 6 -40z m264 -99 c0 -7
13 -31 29 -53 22 -30 26 -44 19 -57 -6 -10 -7 -34 -4 -54 3 -21 7 -66 9 -102
2 -36 7 -74 12 -85 7 -17 7 -18 -7 -8 -23 20 -39 86 -43 188 -2 52 -8 102 -13
112 -15 28 -23 85 -12 78 6 -3 10 -12 10 -19z m-112 -136 c29 -11 62 -20 75
-20 20 -1 21 -1 4 -11 -26 -15 -82 -2 -114 26 -34 30 -32 30 35 5z m87 -90
c-8 -13 -65 -13 -85 0 -11 7 0 10 38 10 33 0 51 -4 47 -10z"/>
</g>
</svg>
