<svg version="1.0" xmlns="http://www.w3.org/2000/svg" viewBox="0 0 1440.000000 830.000000">

<g transform="translate(0.000000,830.000000) scale(0.100000,-0.100000)"
fill="currentColor" stroke="none">
<path d="M3613 8011 c-24 -4 -45 -9 -47 -12 -3 -2 2 -33 9 -69 22 -102 21
-109 -15 -75 -17 16 -39 48 -51 72 -11 24 -23 43 -25 43 -14 0 -79 -32 -101
-50 -56 -44 -57 -54 -18 -113 34 -52 71 -145 60 -155 -7 -7 -139 128 -162 165
l-19 32 -50 -28 c-61 -35 -145 -110 -196 -174 l-38 -49 39 -46 c43 -53 65 -91
57 -99 -9 -10 -95 27 -128 55 l-31 26 -24 -29 c-67 -82 -141 -279 -168 -446
l-12 -77 34 -26 c18 -15 33 -31 33 -37 0 -5 -16 -17 -35 -25 -32 -13 -35 -17
-35 -58 0 -67 -36 -261 -65 -356 -57 -181 -159 -341 -260 -408 -48 -32 -48
-32 -18 -32 85 0 278 71 378 140 75 51 165 141 228 224 61 83 154 264 181 351
87 287 118 349 230 460 87 86 196 146 322 176 117 28 302 23 409 -11 191 -61
391 -206 534 -388 l63 -80 48 33 c27 18 80 44 117 57 61 21 85 23 246 23 97 0
177 2 177 4 0 2 -19 55 -42 117 l-42 112 -70 6 c-39 4 -96 9 -126 13 l-55 7
40 12 c22 7 68 13 103 13 36 1 62 5 62 11 0 58 -242 367 -301 385 -13 5 -41
-7 -84 -34 -36 -22 -65 -39 -65 -37 0 2 14 35 30 72 17 37 27 70 23 73 -187
139 -468 241 -663 241 l-67 0 -7 -116 c-8 -139 -22 -217 -46 -263 -17 -35 -17
-35 -25 172 l-7 207 -142 -1 c-77 -1 -160 -5 -183 -8z"/>
<path d="M3775 7319 c-80 -12 -179 -45 -241 -80 -82 -46 -84 -63 -3 -24 153
72 309 91 473 57 183 -38 402 -168 559 -330 37 -39 67 -68 67 -65 0 27 -80
142 -140 203 -117 119 -221 178 -387 220 -88 23 -246 32 -328 19z"/>
<path d="M3695 7240 c-154 -28 -260 -108 -337 -257 -51 -97 -77 -189 -94 -338
-25 -224 -59 -300 -203 -456 l-70 -76 182 -5 183 -6 117 -76 c64 -42 119 -76
122 -76 3 0 5 61 5 135 l0 135 50 0 50 0 0 -152 c0 -133 3 -157 21 -194 27
-57 155 -183 312 -309 141 -114 368 -278 374 -272 4 5 63 763 63 819 0 34 -4
40 -46 64 -62 36 -225 155 -291 212 -54 46 -110 118 -101 128 3 3 123 -46 267
-108 l261 -113 0 -91 c0 -50 3 -146 7 -213 l6 -122 31 3 31 3 0 440 0 440
-142 9 c-79 5 -143 12 -143 16 0 8 125 20 212 20 l59 0 -33 47 c-49 69 -168
185 -239 233 -88 60 -212 116 -310 140 -96 23 -270 33 -344 20z"/>
<path d="M10650 5960 c0 -79 3 -100 14 -100 8 0 16 7 20 15 4 12 29 15 136 15
l130 0 0 -305 c0 -262 -2 -306 -15 -311 -41 -16 -3 -24 113 -24 126 1 127 1
105 19 -23 19 -23 20 -23 320 l0 301 134 0 c110 0 135 -3 140 -15 3 -8 10 -15
16 -15 6 0 10 38 10 100 0 79 -3 100 -14 100 -8 0 -16 -7 -20 -15 -5 -13 -54
-15 -356 -15 -302 0 -351 2 -356 15 -4 8 -12 15 -20 15 -11 0 -14 -21 -14
-100z"/>
<path d="M7385 6027 c-70 -18 -106 -39 -147 -85 -45 -50 -61 -99 -56 -172 6
-79 40 -130 110 -164 41 -20 89 -30 213 -45 170 -21 211 -32 221 -63 10 -33
-16 -78 -59 -100 -115 -58 -365 -10 -407 79 -8 18 -18 33 -21 33 -9 0 -89
-181 -84 -190 3 -5 13 -6 23 -4 9 3 43 -6 74 -20 95 -42 176 -59 278 -59 204
0 325 68 360 202 13 50 7 99 -20 152 -43 84 -127 118 -348 143 -150 16 -182
30 -182 75 0 36 46 77 96 87 19 3 74 5 122 2 75 -3 96 -9 151 -38 35 -19 68
-44 74 -57 5 -13 13 -23 17 -23 3 0 28 40 54 89 44 84 47 109 13 95 -8 -3 -64
11 -123 32 -92 31 -125 38 -209 40 -60 2 -120 -2 -150 -9z"/>
<path d="M8010 6018 c0 -7 9 -19 20 -26 19 -12 20 -23 20 -357 0 -334 -1 -345
-20 -357 -11 -7 -20 -16 -20 -20 0 -5 56 -8 125 -8 69 0 125 3 125 8 0 4 -9
13 -20 20 -18 11 -20 23 -20 146 l0 134 203 4 c219 5 253 12 311 66 92 87 89
255 -7 339 -60 52 -85 56 -414 60 -248 4 -303 2 -303 -9z m587 -152 c23 -20
28 -32 28 -70 0 -87 -44 -104 -272 -105 l-133 -1 0 100 0 100 174 0 c170 0
176 -1 203 -24z"/>
<path d="M9080 6021 c0 -5 7 -14 15 -21 8 -7 15 -22 15 -34 0 -11 -70 -169
-157 -350 -117 -244 -163 -331 -180 -339 -46 -21 -21 -27 107 -27 83 0 130 4
130 10 0 6 -7 13 -15 16 -21 9 -19 30 11 102 l27 62 178 0 179 0 30 -60 c36
-71 37 -92 8 -113 -21 -15 -12 -16 125 -16 81 -1 147 2 147 7 0 4 -9 13 -20
20 -23 14 -350 661 -350 692 0 11 7 23 15 26 8 4 15 12 15 20 0 11 -27 14
-140 14 -77 0 -140 -4 -140 -9z m244 -439 c7 -22 6 -22 -108 -22 -64 0 -116 3
-116 8 0 4 26 63 57 131 l58 124 51 -110 c28 -60 55 -119 58 -131z"/>
<path d="M9770 6016 c0 -8 7 -16 15 -20 13 -5 15 -54 15 -360 0 -305 -2 -355
-15 -360 -8 -3 -15 -10 -15 -16 0 -6 44 -10 120 -10 76 0 120 4 120 10 0 6 -7
13 -15 16 -12 5 -15 31 -15 145 l0 139 103 0 102 -1 88 -130 c81 -119 98 -159
67 -159 -5 0 -10 -4 -10 -10 0 -6 55 -10 145 -10 90 0 145 4 145 10 0 6 -7 10
-16 10 -21 0 -57 42 -153 180 -78 111 -80 115 -58 124 79 30 101 43 131 77 85
94 60 271 -47 334 -63 36 -146 45 -439 45 -223 0 -268 -2 -268 -14z m605 -151
c18 -17 25 -35 25 -64 0 -93 -19 -101 -245 -101 l-175 0 0 95 0 95 185 0 c184
0 186 0 210 -25z"/>
<path d="M11680 6016 c0 -8 7 -16 15 -20 8 -3 15 -14 15 -25 0 -32 -308 -664
-335 -688 -14 -12 -25 -25 -25 -28 0 -3 59 -5 130 -5 72 0 130 3 130 6 0 3
-10 14 -22 24 l-22 18 32 68 32 69 178 3 178 2 34 -71 35 -71 -23 -18 c-12
-10 -22 -21 -22 -24 0 -3 65 -6 145 -6 134 0 177 9 125 25 -15 5 -67 99 -184
333 -90 180 -166 337 -170 349 -5 16 -1 27 13 39 11 10 18 21 15 26 -3 4 -66
8 -140 8 -108 0 -134 -3 -134 -14z m241 -433 l9 -23 -120 0 -119 0 18 43 c11
23 38 82 60 132 l42 89 50 -109 c28 -61 55 -120 60 -132z"/>
<path d="M12360 6022 c0 -4 9 -15 20 -25 19 -16 20 -29 20 -362 0 -334 -1
-345 -20 -357 -11 -7 -20 -16 -20 -20 0 -5 52 -8 115 -8 72 0 115 4 115 10 0
6 -7 13 -15 16 -13 5 -15 43 -15 252 l0 246 198 -205 c269 -277 270 -278 249
-294 -9 -7 -17 -15 -17 -19 0 -3 56 -6 125 -6 113 0 151 8 110 24 -13 5 -15
54 -15 361 0 307 2 356 15 361 8 4 15 12 15 20 0 11 -23 14 -115 14 -115 0
-136 -7 -100 -34 13 -9 15 -45 13 -244 l-3 -233 -210 220 c-188 197 -239 261
-206 261 6 0 11 7 11 15 0 13 -22 15 -135 15 -74 0 -135 -3 -135 -8z"/>
<path d="M3127 5956 c-92 -98 -114 -119 -155 -143 -65 -37 -331 -239 -483
-366 -119 -100 -209 -189 -209 -208 0 -5 46 16 103 45 104 55 285 131 293 123
2 -2 -29 -16 -68 -32 -96 -37 -259 -121 -350 -181 -93 -61 -226 -193 -266
-264 -18 -30 -32 -58 -32 -62 0 -5 47 -8 104 -8 l104 0 32 57 c40 70 153 183
248 246 70 47 253 139 302 152 14 3 -9 -12 -50 -35 -171 -95 -325 -231 -393
-349 -21 -34 -37 -64 -37 -67 0 -2 101 -4 225 -4 l225 0 0 28 c0 37 33 134 64
186 59 100 143 179 248 232 64 32 199 70 278 78 l65 6 -70 -23 c-216 -72 -374
-226 -445 -433 -30 -86 -31 -84 60 -84 76 0 80 1 80 23 0 41 59 147 108 195
27 26 73 60 103 76 l54 30 -38 -45 c-53 -61 -112 -186 -139 -294 -31 -124 -30
-336 1 -480 42 -198 72 -269 167 -395 47 -63 116 -148 152 -189 57 -64 67 -71
78 -57 6 9 44 70 83 135 l72 118 -76 78 c-148 152 -263 333 -299 472 -28 107
-19 112 30 18 65 -128 168 -279 235 -346 52 -52 122 -99 147 -99 5 0 24 93 42
206 l33 206 -196 196 c-168 169 -197 203 -207 241 -6 23 -10 44 -8 46 2 2 108
-71 237 -161 209 -145 236 -161 246 -146 22 33 155 282 155 290 0 4 -64 43
-142 85 -341 182 -317 168 -273 162 22 -3 114 -14 205 -26 197 -24 352 -47
371 -54 9 -3 31 12 54 35 39 40 40 42 20 56 -89 68 -328 141 -555 170 -51 6
-58 10 -95 57 -94 118 -208 162 -453 173 -135 6 -162 9 -162 22 0 13 21 14
163 8 89 -3 182 -9 207 -12 l45 -6 25 86 c14 49 30 86 37 86 18 0 16 -14 -11
-102 l-24 -77 82 -46 c45 -26 109 -66 141 -91 l59 -44 131 7 c71 3 138 9 148
12 15 6 0 24 -80 102 -197 191 -385 313 -582 379 -108 36 -135 37 -164 6z"/>
<path d="M4555 5688 c-2 -7 -12 -67 -21 -133 -32 -238 1 -292 212 -342 60 -14
197 -47 304 -74 252 -62 472 -110 478 -104 6 5 -58 89 -127 166 -164 184 -474
384 -725 469 -100 33 -115 36 -121 18z"/>
<path d="M2219 5263 c-55 -40 -414 -383 -406 -388 1 -1 19 -5 39 -8 36 -5 38
-4 59 41 15 32 80 104 200 225 97 97 176 177 174 177 -2 0 -31 -21 -66 -47z"/>
<path d="M4189 5119 c-55 -56 -138 -178 -183 -266 -61 -122 -184 -476 -174
-503 2 -4 41 21 88 56 47 35 119 82 160 103 67 35 194 81 223 81 6 0 -33 -29
-86 -64 -170 -114 -315 -235 -302 -255 3 -5 35 -19 70 -31 62 -21 79 -22 318
-17 274 4 298 8 547 89 158 50 376 48 594 -8 32 -8 60 -13 62 -11 2 2 -50 29
-116 61 -138 65 -145 76 -115 161 18 53 101 201 196 353 33 51 59 96 59 99 0
3 -67 4 -149 1 -124 -5 -154 -3 -171 9 -40 28 -212 93 -324 123 -166 44 -283
61 -473 67 l-172 6 -52 -54z m700 -524 c56 -14 198 -73 189 -79 -6 -4 -316 13
-418 24 -119 13 -204 29 -196 38 31 30 318 42 425 17z"/>
<path d="M5878 5020 c-202 -34 -339 -137 -451 -337 -64 -113 -77 -165 -53
-210 35 -70 111 -111 281 -154 130 -34 145 -35 145 -11 0 11 -51 56 -139 122
l-140 103 18 26 c10 14 39 67 64 117 54 108 86 148 140 175 39 20 54 21 515
20 513 -2 518 -2 560 -56 22 -27 30 -75 14 -75 -5 0 -49 15 -98 33 l-89 32
-363 3 c-309 2 -372 1 -418 -13 -60 -17 -122 -67 -159 -125 -21 -34 -65 -141
-65 -159 0 -14 202 -118 275 -142 l66 -22 117 23 c145 28 265 61 547 151 223
71 249 82 296 126 l26 24 49 -83 c103 -176 191 -231 369 -232 132 -1 191 24
256 110 77 101 67 99 414 99 165 0 1194 -1 2288 -2 l1987 -3 0 -25 c0 -19 5
-25 23 -25 12 0 163 7 335 15 340 15 350 17 396 78 43 58 12 166 -60 214 -19
12 -108 27 -318 54 -160 21 -310 40 -333 43 l-43 6 0 -45 0 -45 -2282 -2
c-1256 -2 -2311 0 -2345 4 -72 8 -148 44 -206 97 -23 21 -54 41 -69 45 -15 3
-231 11 -480 16 -250 5 -537 17 -639 25 -196 16 -354 18 -431 5z"/>
<path d="M13195 4911 c-16 -11 -48 -36 -70 -55 l-40 -36 40 -36 c72 -64 73
-64 405 -64 l301 0 -3 -22 c-3 -20 -10 -23 -53 -25 -398 -17 -546 -27 -576
-37 -20 -7 -54 -27 -77 -46 l-41 -33 51 -46 c88 -79 69 -78 321 -22 378 85
729 173 720 181 -13 12 -301 104 -468 149 -141 39 -448 111 -470 111 -5 0 -23
-9 -40 -19z"/>
<path d="M413 4819 c-44 -13 -67 -58 -67 -131 1 -70 21 -103 70 -117 24 -7
466 -8 1288 -4 l1253 6 18 114 c9 63 15 117 11 120 -4 4 -37 10 -74 15 -99 11
-2461 8 -2499 -3z"/>
<path d="M1677 4509 c-61 -9 -68 -16 -117 -103 -219 -398 -277 -1135 -124
-1596 19 -58 39 -109 44 -114 17 -17 125 231 166 379 21 75 27 126 34 305 12
262 20 353 71 774 22 181 38 335 35 341 -6 17 -51 22 -109 14z"/>
<path d="M1825 4500 c-4 -6 -5 -235 -4 -508 3 -443 2 -510 -15 -617 -37 -246
-102 -457 -218 -709 -73 -160 -126 -311 -175 -503 -36 -141 -38 -156 -38 -303
1 -129 5 -169 24 -240 79 -294 242 -523 485 -681 50 -32 92 -57 94 -55 2 2
-17 40 -42 83 -109 189 -156 355 -163 573 -8 234 15 339 159 725 175 469 226
697 216 966 l-4 123 23 -49 c31 -68 30 -101 -17 -418 -149 -999 -187 -1328
-175 -1492 38 -524 231 -771 690 -880 95 -23 365 -58 374 -49 3 2 -9 19 -25
37 -313 337 -389 423 -487 550 -180 231 -261 433 -288 721 -19 201 5 412 82
737 74 312 86 581 40 849 -27 157 -228 1127 -236 1140 -8 14 -292 13 -300 0z"/>
<path d="M2270 4492 c-24 -20 -25 -23 -24 -149 2 -167 36 -347 109 -570 99
-307 132 -479 142 -753 8 -237 -8 -396 -73 -725 -26 -128 -26 -437 -1 -553 77
-351 255 -625 577 -888 158 -129 734 -514 769 -514 10 0 116 40 236 89 l219
89 -44 11 c-229 57 -546 194 -735 318 -180 118 -406 322 -525 473 -29 37 -17
29 70 -45 225 -193 411 -320 630 -429 307 -153 582 -218 920 -218 204 0 365
18 605 67 285 58 282 45 28 129 -682 228 -1103 463 -1470 819 -73 71 -132 132
-129 134 9 9 69 -27 176 -107 411 -309 838 -532 1320 -688 467 -152 807 -210
1919 -327 288 -30 526 -54 528 -52 9 10 -444 271 -531 307 -184 75 -704 235
-1221 375 -154 42 -336 94 -405 117 -1293 424 -2097 1351 -2365 2728 -22 109
-25 151 -20 216 7 91 -3 125 -42 143 -65 30 -79 15 -114 -121 -32 -129 -37
-133 -64 -59 -13 34 -44 94 -70 133 l-47 71 -19 -24 c-10 -13 -31 -47 -46 -76
-27 -51 -27 -52 -14 -130 42 -252 146 -654 277 -1067 109 -345 158 -535 184
-722 39 -272 91 -451 185 -632 167 -321 419 -548 832 -749 75 -37 131 -69 125
-71 -19 -6 -201 35 -304 69 -377 126 -643 347 -812 679 -102 199 -153 393
-182 694 -40 427 -87 635 -234 1052 -132 371 -168 540 -157 734 4 58 13 131
20 162 17 69 19 67 -108 75 -81 5 -93 3 -115 -15z m838 -1339 c366 -796 923
-1352 1730 -1729 75 -35 131 -64 123 -64 -7 0 -48 9 -90 20 -879 224 -1630
999 -1856 1915 -33 133 -31 146 9 50 18 -44 56 -130 84 -192z"/>
<path d="M5853 4231 c-83 -20 -155 -39 -158 -43 -4 -4 7 -49 24 -100 38 -117
64 -220 93 -373 20 -106 23 -151 23 -380 0 -232 -2 -272 -23 -374 -75 -368
-239 -682 -521 -995 -94 -104 -125 -167 -119 -244 4 -61 32 -126 78 -182 l28
-34 58 44 c87 67 278 254 351 345 482 597 660 1468 441 2154 -45 141 -83 221
-105 220 -10 0 -86 -17 -170 -38z"/>
<path d="M9266 4235 c-5 -13 -51 -15 -331 -15 -271 0 -325 -2 -325 -14 0 -8 7
-16 15 -20 13 -5 15 -50 15 -326 0 -276 -2 -321 -15 -326 -49 -19 16 -24 310
-24 310 0 326 -1 342 -19 9 -11 20 -18 25 -15 4 3 8 45 8 95 0 69 -3 89 -14
89 -8 0 -16 -7 -20 -15 -5 -13 -41 -15 -241 -15 l-235 0 0 95 0 95 145 0 c133
0 147 -2 162 -20 10 -11 21 -20 25 -20 10 0 11 174 1 183 -3 4 -12 -2 -20 -13
-13 -18 -26 -20 -164 -20 l-149 0 0 85 0 85 222 0 c214 0 223 -1 245 -22 l23
-21 0 96 c0 89 -9 120 -24 82z"/>
<path d="M10924 4215 c-81 -18 -136 -47 -191 -101 -89 -90 -123 -222 -88 -349
39 -145 151 -238 320 -265 123 -20 239 3 363 73 30 17 61 27 72 24 36 -9 32
11 -16 83 -48 71 -64 84 -64 52 0 -26 -25 -46 -95 -79 -53 -25 -71 -28 -160
-28 -117 0 -159 17 -218 86 -109 127 -47 333 114 379 58 17 183 12 239 -9 65
-25 120 -67 120 -92 0 -10 3 -19 8 -19 8 0 102 142 102 154 0 4 -9 4 -21 1
-14 -5 -50 8 -112 39 -132 66 -237 81 -373 51z"/>
<path d="M7586 4212 c-3 -5 4 -16 15 -25 18 -16 19 -32 19 -324 0 -301 0 -307
-22 -330 l-21 -23 113 0 114 0 -22 20 c-21 20 -22 27 -22 238 1 175 3 213 13
196 7 -11 64 -116 127 -232 63 -117 117 -212 120 -212 3 0 65 105 137 233
l133 232 0 -223 c0 -189 -2 -224 -15 -228 -39 -15 -5 -24 95 -24 100 0 134 9
95 24 -13 5 -15 50 -15 326 0 276 2 321 15 326 8 4 15 12 15 20 0 11 -25 14
-129 14 -77 0 -132 -4 -136 -10 -3 -6 1 -13 9 -16 9 -3 16 -11 16 -16 0 -20
-204 -378 -211 -371 -20 21 -189 345 -189 362 0 11 5 23 10 26 6 4 8 11 5 16
-8 11 -262 12 -269 1z"/>
<path d="M9416 4211 c-4 -6 0 -14 8 -17 14 -5 16 -46 16 -330 0 -279 -2 -325
-15 -330 -51 -20 7 -25 258 -22 261 3 274 4 324 27 65 29 134 101 159 166 15
39 19 76 19 161 0 107 -1 113 -35 180 -40 79 -93 125 -173 150 -65 21 -550 34
-561 15z m516 -143 c28 -15 52 -39 68 -68 22 -39 25 -57 25 -140 0 -86 -3
-100 -27 -142 -44 -74 -84 -88 -256 -88 l-142 0 0 236 0 237 144 -5 c128 -5
150 -9 188 -30z"/>
<path d="M10300 4206 c0 -8 7 -16 15 -20 13 -5 15 -50 15 -326 0 -276 -2 -321
-15 -326 -39 -15 -5 -24 95 -24 100 0 134 9 95 24 -13 5 -15 50 -15 326 0 276
2 321 15 326 8 4 15 12 15 20 0 11 -23 14 -110 14 -87 0 -110 -3 -110 -14z"/>
<path d="M11760 4206 c0 -8 7 -16 15 -20 8 -3 15 -12 15 -21 0 -9 -66 -154
-147 -322 -99 -205 -153 -308 -165 -311 -10 -2 -18 -8 -18 -13 0 -5 54 -9 120
-9 66 0 120 3 120 6 0 3 -9 13 -20 22 -20 17 -20 17 12 85 l31 67 156 0 157 0
32 -65 c18 -36 32 -67 32 -70 0 -2 -10 -13 -22 -25 l-22 -20 137 0 138 0 -33
34 c-21 21 -86 143 -178 331 -132 271 -143 298 -127 310 39 28 19 35 -108 35
-100 0 -125 -3 -125 -14z m178 -298 l51 -113 -54 -3 c-30 -2 -79 -2 -109 0
l-53 3 51 112 c28 62 54 113 57 113 3 0 29 -51 57 -112z"/>
<path d="M12386 4212 c-3 -5 4 -16 15 -25 18 -16 19 -32 19 -327 0 -299 -1
-310 -20 -322 -11 -7 -20 -16 -20 -20 0 -5 143 -8 317 -8 311 0 317 0 340 -22
l23 -21 0 96 c0 89 -9 120 -24 82 -5 -13 -40 -15 -236 -15 l-230 0 0 270 c0
255 1 271 19 287 11 9 18 20 15 25 -3 4 -52 8 -109 8 -57 0 -106 -4 -109 -8z"/>
<path d="M3050 4186 c0 -26 69 -304 112 -446 173 -577 461 -1081 825 -1445
100 -101 274 -245 294 -245 5 0 9 11 9 25 0 38 12 30 38 -24 28 -61 137 -165
229 -220 77 -46 88 -49 75 -23 -15 28 -22 82 -16 108 6 23 7 22 35 -19 40 -61
115 -136 186 -189 63 -47 188 -112 237 -124 29 -7 29 -6 -50 146 -74 143 -83
155 -142 201 -113 86 -325 184 -559 258 -94 30 -275 116 -223 106 14 -3 106
-14 205 -25 204 -23 294 -44 414 -101 46 -21 86 -37 88 -35 8 8 -28 151 -51
201 -41 90 -50 95 -171 95 -117 0 -125 -5 -125 -74 0 -20 -3 -36 -7 -36 -5 0
-26 10 -47 23 -44 25 -72 71 -82 135 l-7 42 156 0 c155 0 200 7 209 32 7 17
-9 362 -17 388 -13 40 -55 50 -204 50 -133 0 -140 1 -146 21 -4 11 -5 23 -2
25 3 3 61 13 130 23 69 9 133 23 142 31 24 20 18 253 -8 293 l-17 27 -140 0
c-133 0 -140 1 -140 20 0 19 7 20 114 20 162 0 160 -2 164 172 2 118 1 136
-17 165 -35 55 -62 66 -209 80 -149 15 -296 44 -339 67 l-28 15 35 1 c19 0
122 -7 230 -16 107 -9 222 -14 255 -11 119 9 205 83 230 196 l7 34 -58 -7
c-314 -39 -637 -33 -784 14 -30 10 -62 20 -71 24 -12 5 -19 -6 -32 -52 -32
-115 -218 -445 -286 -506 -18 -16 -22 -16 -49 -2 -73 37 -212 227 -326 446
-36 69 -66 121 -66 116z m935 -443 c64 -118 130 -220 170 -263 l33 -35 5 -430
c7 -449 10 -483 55 -552 21 -33 1 -29 -50 10 -32 24 -54 55 -86 117 -63 127
-72 197 -72 580 l0 316 -29 55 c-34 63 -57 139 -69 227 -5 34 -8 62 -6 62 1 0
23 -39 49 -87z m-430 -460 c55 -18 155 -44 223 -56 l123 -23 -35 -17 c-59 -28
-157 -40 -218 -28 -92 20 -176 79 -223 160 -6 11 -4 13 11 6 10 -4 64 -23 119
-42z m334 -289 l32 -7 -28 -19 c-86 -58 -170 -64 -250 -18 -28 16 -54 34 -58
40 -7 11 250 14 304 4z"/>
<path d="M8201 3223 c-73 -22 -144 -90 -161 -153 -21 -79 4 -159 62 -203 47
-35 85 -45 251 -66 81 -10 153 -24 162 -31 23 -19 18 -67 -9 -95 -45 -45 -145
-57 -249 -30 -86 22 -138 52 -150 86 -6 16 -14 29 -18 29 -6 0 -79 -159 -79
-173 0 -5 8 -7 18 -5 9 3 41 -6 71 -19 134 -58 293 -70 416 -32 182 56 233
256 93 362 -43 33 -118 53 -248 67 -134 14 -168 25 -176 55 -16 63 46 99 167
99 77 0 93 -3 153 -33 41 -20 72 -42 78 -57 6 -13 14 -24 17 -24 4 0 25 38 48
84 l42 84 -42 5 c-23 2 -76 17 -117 32 -96 36 -245 44 -329 18z"/>
<path d="M8780 3221 c0 -5 7 -14 15 -21 13 -10 15 -51 15 -247 0 -271 6 -309
60 -363 54 -54 113 -72 259 -77 223 -10 338 39 371 155 5 21 10 143 10 279 0
233 1 243 20 253 38 20 9 30 -90 30 -100 0 -128 -10 -89 -30 20 -11 21 -16 17
-244 -3 -201 -5 -236 -21 -259 -25 -39 -70 -58 -151 -64 -86 -6 -146 8 -189
47 l-32 28 -3 243 c-3 211 -1 244 12 251 36 20 11 28 -94 28 -60 0 -110 -4
-110 -9z"/>
<path d="M9657 3224 c-4 -4 2 -13 13 -21 19 -14 20 -26 20 -325 0 -306 0 -312
-22 -335 l-21 -23 116 0 c106 0 142 8 102 24 -12 4 -15 29 -15 131 l0 125 128
0 c238 1 314 21 363 98 70 111 33 253 -80 306 -43 20 -65 21 -321 24 -151 2
-279 0 -283 -4z m496 -125 c49 -13 74 -63 58 -111 -19 -54 -32 -57 -203 -58
l-158 0 0 90 0 90 133 0 c72 0 149 -5 170 -11z"/>
<path d="M10467 3224 c-4 -4 2 -13 13 -21 19 -14 20 -26 20 -325 0 -306 0
-312 -22 -335 l-21 -23 116 0 c106 0 142 8 102 24 -12 4 -15 29 -15 131 l0
125 128 0 c238 1 314 21 363 98 70 111 33 253 -80 306 -43 20 -65 21 -321 24
-151 2 -279 0 -283 -4z m495 -125 c68 -18 87 -101 35 -149 -19 -18 -36 -20
-179 -20 l-158 0 0 90 0 90 133 0 c72 0 149 -5 169 -11z"/>
<path d="M11277 3223 c-4 -3 2 -12 13 -20 19 -14 20 -26 20 -325 0 -306 0
-312 -22 -335 l-21 -23 326 0 c318 0 327 -1 337 -20 20 -37 30 -10 30 81 0 69
-3 89 -14 89 -8 0 -16 -7 -20 -15 -4 -13 -40 -15 -231 -15 l-225 0 0 279 c0
239 2 280 15 285 8 3 15 10 15 16 0 11 -212 15 -223 3z"/>
<path d="M11857 3224 c-3 -4 8 -16 26 -28 17 -12 89 -102 159 -201 l128 -180
0 -126 c0 -100 -3 -129 -15 -139 -30 -25 -13 -30 95 -30 100 0 134 9 95 24
-12 4 -15 30 -15 140 l0 135 115 161 c142 200 145 204 173 219 12 6 22 16 22
21 0 11 -263 14 -273 3 -4 -3 2 -12 13 -20 11 -8 20 -19 20 -24 0 -13 -142
-219 -151 -219 -3 0 -39 50 -80 111 l-73 111 22 18 c12 10 22 21 22 24 0 8
-275 8 -283 0z"/>
</g>
</svg>
