<?xml version="1.0" encoding="utf-8"?>
<!-- Generator: Adobe Illustrator 24.0.0, SVG Export Plug-In . SVG Version: 6.00 Build 0)  -->
<svg version="1.1" id="Capa_1" xmlns="http://www.w3.org/2000/svg" xmlns:xlink="http://www.w3.org/1999/xlink" x="0px" y="0px"
	 viewBox="0 0 436.7 455.5" style="enable-background:new 0 0 436.7 455.5;" xml:space="preserve">
<style type="text/css">
	.st0{fill:#FFFFFF;}
</style>
<g>
	<path class="st0" d="M269.4,51.7v38.9c0,52.5-42.6,95.1-95.1,95.1h-9.6v-2.3c20.8-1.1,48.3-5,64.2-17.4
		c35.1-27.5,38.5-65.6,38.5-65.6s-18.4,60.2-101.2,60.2h-1.4V20.4h73.4C255.4,20.4,269.4,34.4,269.4,51.7L269.4,51.7z"/>
	<path class="st0" d="M11.8,279.8v-55.2c0-25.6,20.7-46.3,46.3-46.3h106.5c52.1,0,95.4-37.4,104.7-86.7
		c-0.1,31.3-7.9,60.8-21.5,86.7C216.3,238.6,153,279.8,80.2,279.8H11.8L11.8,279.8z"/>
</g>
<g>
	<path class="st0" d="M165.6,400.6v-38.9c0-52.5,42.6-95.1,95.1-95.1h9.6v2.3c-20.8,1.1-48.3,5-64.2,17.4
		c-35.1,27.5-38.5,65.6-38.5,65.6s18.4-60.2,101.2-60.2h1.4v140.2h-73.4C179.6,431.8,165.6,417.8,165.6,400.6z"/>
	<path class="st0" d="M423.1,172.4v55.2c0,25.6-20.7,46.3-46.3,46.3H270.3c-52.1,0-95.4,37.4-104.7,86.7
		c0.1-31.3,7.9-60.8,21.5-86.7c31.6-60.3,94.8-101.5,167.7-101.5L423.1,172.4L423.1,172.4z"/>
</g>
</svg>
