<?xml version="1.0" encoding="utf-8"?>
<!-- Generator: Adobe Illustrator 24.0.0, SVG Export Plug-In . SVG Version: 6.00 Build 0)  -->
<svg version="1.1" id="Capa_1" xmlns="http://www.w3.org/2000/svg" xmlns:xlink="http://www.w3.org/1999/xlink" x="0px" y="0px"
	 viewBox="0 0 1355.9 455.5" style="enable-background:new 0 0 1355.9 455.5;" xml:space="preserve">
<style type="text/css">
	.st0{fill:url(#SVGID_1_);}
	.st1{opacity:0.26;fill:#1264FD;}
	.st2{fill:url(#SVGID_2_);}
	.st3{fill:url(#SVGID_3_);}
	.st4{fill:url(#SVGID_4_);}
	.st5{fill:#7C7C7C;}
	.st6{fill:#3B3B3A;}
	.st7{fill:#AEAEAE;}
</style>
<g>
	<g>
		<linearGradient id="SVGID_1_" gradientUnits="userSpaceOnUse" x1="250.6391" y1="450.3917" x2="196.3956" y2="277.3294">
			<stop  offset="0" style="stop-color:#31C5FF"/>
			<stop  offset="1" style="stop-color:#1264FD"/>
		</linearGradient>
		<path class="st0" d="M267.8,430.8h-82.2c-11.6,0-21.1-9.4-21.1-21.1v-77.5c0-35.6,28.9-64.4,64.4-64.4h38.8V430.8z"/>
		<path class="st1" d="M164.6,363.8c0,0,9-46.1,49.8-67.8c30.1-16,53.4-13.4,53.4-13.4v-11.9l-65.5,11.1l-28.6,38.7l-7.7,25.8
			l-1.5,11.3L164.6,363.8z"/>
		
			<radialGradient id="SVGID_2_" cx="176.5405" cy="312.7551" r="197.6658" gradientTransform="matrix(0.9942 0.1079 -0.1054 0.971 33.9876 -9.9684)" gradientUnits="userSpaceOnUse">
			<stop  offset="0" style="stop-color:#31C5FF"/>
			<stop  offset="1" style="stop-color:#1264FD"/>
		</radialGradient>
		<path class="st2" d="M418.5,175.1v54.4c0,25.2-20.4,45.7-45.7,45.7h-105c-51.3,0-94.1,36.8-103.2,85.5
			c0.1-30.9,7.8-59.9,21.2-85.5c31.1-59.5,93.5-100.1,165.3-100.1H418.5z"/>
	</g>
	<g>
		
			<linearGradient id="SVGID_3_" gradientUnits="userSpaceOnUse" x1="549.6791" y1="-1766.1704" x2="495.406" y2="-1939.3273" gradientTransform="matrix(-1 0 0 -1 730.5193 -1760.5691)">
			<stop  offset="0" style="stop-color:#31C5FF"/>
			<stop  offset="1" style="stop-color:#1264FD"/>
		</linearGradient>
		<path class="st3" d="M163.7,25.2h82.2c11.6,0,21.1,9.4,21.1,21.1v77.8c0,35.4-28.7,64.1-64.1,64.1h-39.2V25.2z"/>
		<path class="st1" d="M266.9,92.2c0,0-9,46.1-49.8,67.8c-30.1,16-53.4,13.4-53.4,13.4v11.9l65.5-11.1l28.6-38.7l7.7-25.8l1.5-11.3
			L266.9,92.2z"/>
		
			<radialGradient id="SVGID_4_" cx="475.5783" cy="-1903.814" r="197.6658" gradientTransform="matrix(-0.9942 -0.1079 0.1054 -0.971 928.3605 -1653.9902)" gradientUnits="userSpaceOnUse">
			<stop  offset="0" style="stop-color:#31C5FF"/>
			<stop  offset="1" style="stop-color:#1264FD"/>
		</radialGradient>
		<path class="st4" d="M13,280.9v-54.4c0-25.2,20.4-45.7,45.7-45.7h105c51.3,0,94.1-36.8,103.2-85.5c-0.1,30.9-7.8,59.9-21.2,85.5
			c-31.1,59.5-93.5,100.1-165.3,100.1H13z"/>
	</g>
	<rect x="474.7" y="63" class="st5" width="12.5" height="329.9"/>
	<g>
		<g>
			<path class="st6" d="M535.6,223.2v-97.7h22.8l40.5,66.5h-12l39.4-66.5h22.8l0.3,97.7h-25.4l-0.3-59.1h4.3l-29.5,49.4h-12.3
				l-30.3-49.4h5.3v59.1H535.6z"/>
			<path class="st6" d="M705.1,224.4c-8.9,0-16.7-1.7-23.4-5.1c-6.7-3.4-11.8-8-15.5-14c-3.7-5.9-5.5-12.6-5.5-20.2
				c0-7.5,1.8-14.3,5.4-20.2c3.6-5.9,8.5-10.5,14.9-13.8c6.3-3.3,13.4-5,21.4-5c7.4,0,14.2,1.5,20.4,4.5c6.1,3,11,7.5,14.7,13.3
				c3.6,5.9,5.4,13,5.4,21.4c0,0.9,0,2-0.1,3.2c-0.1,1.2-0.2,2.3-0.3,3.4h-59.9v-14h45.8l-10.1,3.9c0.1-3.4-0.5-6.4-1.9-8.9
				c-1.4-2.5-3.2-4.5-5.6-5.9c-2.4-1.4-5.1-2.1-8.3-2.1c-3.2,0-5.9,0.7-8.3,2.1c-2.4,1.4-4.2,3.4-5.5,5.9c-1.3,2.6-2,5.6-2,9v4
				c0,3.7,0.8,6.9,2.3,9.6c1.5,2.7,3.7,4.8,6.6,6.2c2.9,1.4,6.3,2.2,10.3,2.2c3.7,0,6.9-0.5,9.6-1.6c2.7-1.1,5.3-2.7,7.9-5l14,14.5
				c-3.6,4-8.1,7.1-13.4,9.1C718.6,223.4,712.3,224.4,705.1,224.4z"/>
			<path class="st6" d="M785.9,224.4c-6.9,0-13.1-1.6-18.8-4.8c-5.6-3.2-10.1-7.7-13.5-13.5c-3.3-5.8-5-12.8-5-20.9
				c0-8,1.7-14.9,5-20.7c3.4-5.8,7.8-10.3,13.5-13.5c5.6-3.2,11.9-4.7,18.8-4.7c6.5,0,12,1.4,16.5,4.2c4.5,2.8,7.9,7.1,10.3,12.8
				c2.3,5.8,3.5,13.1,3.5,21.9c0,9-1.1,16.4-3.3,22.2c-2.2,5.8-5.6,10.1-10.1,12.8C798.3,223,792.7,224.4,785.9,224.4z M791.5,203.4
				c3,0,5.7-0.7,8-2.1c2.4-1.4,4.3-3.5,5.7-6.2c1.4-2.7,2.1-6,2.1-9.8c0-3.8-0.7-7.1-2.1-9.7c-1.4-2.7-3.3-4.7-5.7-6.1
				c-2.4-1.4-5.1-2.1-8-2.1c-3.1,0-5.8,0.7-8.2,2.1c-2.4,1.4-4.3,3.4-5.7,6.1c-1.4,2.7-2.1,5.9-2.1,9.7c0,3.8,0.7,7.1,2.1,9.8
				c1.4,2.7,3.3,4.8,5.7,6.2C785.7,202.7,788.4,203.4,791.5,203.4z M808.1,223.2v-13l0.1-25l-1.4-25v-40.6h26.5v103.6H808.1z"/>
			<path class="st6" d="M875.8,224.4c-6.4,0-12.7-0.7-18.8-2.2c-6.1-1.5-11-3.4-14.7-5.6l8-18.1c3.5,2.1,7.7,3.8,12.4,5.1
				c4.7,1.3,9.4,1.9,14,1.9c4.5,0,7.6-0.5,9.3-1.4c1.7-0.9,2.6-2.2,2.6-3.8c0-1.5-0.8-2.6-2.4-3.3c-1.6-0.7-3.8-1.2-6.4-1.6
				c-2.7-0.4-5.6-0.8-8.7-1.3c-3.2-0.5-6.4-1.1-9.6-1.9c-3.2-0.8-6.1-2-8.8-3.6c-2.7-1.6-4.8-3.8-6.4-6.6c-1.6-2.8-2.4-6.3-2.4-10.6
				c0-4.8,1.4-9.1,4.3-12.9c2.8-3.8,7-6.7,12.5-8.9c5.5-2.2,12.2-3.3,20.1-3.3c5.3,0,10.7,0.5,16.1,1.6c5.4,1.1,10,2.7,13.8,4.8
				l-8,18c-3.7-2.1-7.4-3.6-11.2-4.4c-3.7-0.8-7.3-1.2-10.6-1.2c-4.5,0-7.6,0.5-9.4,1.5c-1.8,1-2.7,2.3-2.7,3.8
				c0,1.5,0.8,2.6,2.4,3.4c1.6,0.8,3.7,1.4,6.4,1.8c2.7,0.4,5.6,0.8,8.7,1.3c3.2,0.4,6.4,1,9.6,1.9s6.1,2.1,8.8,3.7
				c2.7,1.6,4.8,3.8,6.4,6.6c1.6,2.7,2.4,6.3,2.4,10.5c0,4.7-1.4,8.8-4.3,12.6c-2.8,3.7-7,6.7-12.6,8.9
				C890.9,223.3,884,224.4,875.8,224.4z"/>
			<path class="st6" d="M914.6,167.2v-19.7h54.9v19.7H914.6z M956.4,224.4c-9.7,0-17.2-2.4-22.6-7.2c-5.4-4.8-8.1-12-8.1-21.7v-64.9
				h26.5v64.6c0,2.7,0.7,4.8,2.2,6.4c1.5,1.5,3.4,2.3,5.7,2.3c3.2,0,5.9-0.8,8.1-2.4l6.6,18.6c-2.2,1.5-5,2.6-8.2,3.3
				C963.3,224.1,959.9,224.4,956.4,224.4z"/>
			<path class="st6" d="M982.9,223.2v-75.7h25.3v22.1l-3.8-6.3c2.2-5.7,5.9-9.9,10.9-12.8c5-2.8,11.1-4.3,18.3-4.3v23.9
				c-1.2-0.2-2.3-0.3-3.1-0.3c-0.9,0-1.8-0.1-2.9-0.1c-5.4,0-9.8,1.5-13.1,4.4c-3.3,2.9-5,7.7-5,14.3v34.8H982.9z"/>
			<path class="st6" d="M1081.3,224.4c-8.9,0-16.7-1.7-23.4-5.1c-6.7-3.4-11.8-8-15.5-14c-3.7-5.9-5.5-12.6-5.5-20.2
				c0-7.5,1.8-14.3,5.4-20.2c3.6-5.9,8.5-10.5,14.9-13.8c6.3-3.3,13.4-5,21.4-5c7.4,0,14.2,1.5,20.4,4.5c6.1,3,11,7.5,14.7,13.3
				c3.6,5.9,5.4,13,5.4,21.4c0,0.9,0,2-0.1,3.2c-0.1,1.2-0.2,2.3-0.3,3.4h-59.9v-14h45.8l-10.1,3.9c0.1-3.4-0.5-6.4-1.9-8.9
				c-1.4-2.5-3.2-4.5-5.6-5.9c-2.4-1.4-5.1-2.1-8.3-2.1c-3.2,0-5.9,0.7-8.3,2.1c-2.4,1.4-4.2,3.4-5.5,5.9c-1.3,2.6-2,5.6-2,9v4
				c0,3.7,0.8,6.9,2.3,9.6c1.5,2.7,3.7,4.8,6.6,6.2c2.9,1.4,6.3,2.2,10.3,2.2c3.7,0,6.9-0.5,9.6-1.6c2.7-1.1,5.3-2.7,7.9-5l14,14.5
				c-3.6,4-8.1,7.1-13.4,9.1C1094.9,223.4,1088.6,224.4,1081.3,224.4z"/>
			<path class="st6" d="M1151,224.4c-6.1,0-11.2-1-15.4-3.1c-4.2-2-7.4-4.8-9.6-8.4c-2.2-3.5-3.3-7.5-3.3-11.9
				c0-4.7,1.2-8.7,3.6-12.1c2.4-3.4,6-6,11-7.8c4.9-1.8,11.3-2.7,19.1-2.7h17.9v13.8h-14.2c-4.3,0-7.3,0.7-9,2.1
				c-1.7,1.4-2.6,3.3-2.6,5.6c0,2.3,0.9,4.2,2.7,5.6c1.8,1.4,4.2,2.1,7.3,2.1c2.9,0,5.5-0.7,7.9-2.2c2.4-1.4,4.1-3.7,5.2-6.6
				l3.6,9.8c-1.4,5.2-4.1,9.1-8.2,11.8C1162.9,223.1,1157.6,224.4,1151,224.4z M1173.3,223.2v-14.1l-1.8-3.5v-26
				c0-4.2-1.3-7.4-3.8-9.7c-2.6-2.3-6.6-3.4-12.2-3.4c-3.6,0-7.3,0.6-11,1.7c-3.7,1.2-6.9,2.8-9.5,4.8l-8.9-18
				c4.3-2.8,9.4-5,15.4-6.5c6-1.5,12-2.3,17.9-2.3c12.3,0,21.8,2.8,28.6,8.4c6.7,5.6,10.1,14.4,10.1,26.5v42H1173.3z"/>
			<path class="st6" d="M1212.7,223.2v-75.7h25.3v21.1l-5-6c2.8-5.4,6.6-9.5,11.4-12.2c4.8-2.7,10.2-4.1,16.2-4.1
				c6.8,0,12.8,1.7,17.9,5.2c5.2,3.5,8.6,8.9,10.4,16.3l-8.7-1.8c2.7-6.1,6.8-11,12.2-14.4c5.4-3.5,11.7-5.2,18.8-5.2
				c5.9,0,11.1,1.2,15.7,3.6c4.6,2.4,8.2,6,10.9,11c2.7,4.9,4,11.3,4,19.1v43.3h-26.5v-39c0-5.4-1-9.3-3.1-11.8
				c-2-2.5-4.8-3.7-8.4-3.7c-2.5,0-4.8,0.6-6.8,1.8c-2,1.2-3.6,3-4.7,5.5c-1.1,2.5-1.7,5.7-1.7,9.6v37.6h-26.5v-39
				c0-5.4-1-9.3-3-11.8c-2-2.5-4.8-3.7-8.4-3.7c-2.6,0-4.9,0.6-6.9,1.8c-2,1.2-3.6,3-4.7,5.5c-1.2,2.5-1.7,5.7-1.7,9.6v37.6H1212.7z
				"/>
		</g>
	</g>
	<g>
		<g>
			<path class="st7" d="M565.2,327.5c-5,0-9.7-0.8-13.9-2.5c-4.2-1.6-7.9-4-11-7c-3.1-3-5.5-6.6-7.3-10.6c-1.7-4-2.6-8.5-2.6-13.4
				c0-4.9,0.9-9.3,2.6-13.4c1.7-4.1,4.2-7.6,7.3-10.6c3.1-3,6.8-5.4,11.1-7c4.2-1.7,8.9-2.5,14-2.5c5.2,0,9.9,0.8,14.2,2.5
				c4.3,1.7,7.9,4.2,10.9,7.6l-5.8,5.8c-2.7-2.6-5.6-4.5-8.7-5.7c-3.1-1.2-6.6-1.8-10.2-1.8c-3.7,0-7.2,0.6-10.4,1.9
				c-3.2,1.2-6,3-8.3,5.2c-2.3,2.2-4.1,4.9-5.4,8c-1.3,3.1-1.9,6.4-1.9,10c0,3.6,0.6,6.9,1.9,10c1.3,3.1,3.1,5.8,5.4,8
				c2.3,2.3,5.1,4,8.3,5.3c3.2,1.2,6.6,1.9,10.4,1.9c3.5,0,6.8-0.5,10-1.6c3.2-1.1,6.2-2.9,8.9-5.5l5.3,7.1c-3.2,2.7-7,4.8-11.4,6.2
				C574.2,326.8,569.8,327.5,565.2,327.5z M589.9,319.2l-9-1.2v-24.3h9V319.2z"/>
			<path class="st7" d="M605.1,326.8v-69.3h9v69.3H605.1z"/>
			<path class="st7" d="M651,327.3c-5,0-9.4-1.1-13.3-3.3c-3.9-2.2-6.9-5.2-9.2-9c-2.2-3.8-3.4-8.2-3.4-13c0-4.9,1.1-9.3,3.4-13.1
				c2.2-3.8,5.3-6.8,9.2-8.9c3.9-2.1,8.3-3.2,13.3-3.2c4.9,0,9.3,1.1,13.2,3.2c3.9,2.2,6.9,5.1,9.2,8.9c2.2,3.8,3.3,8.1,3.3,13.1
				c0,4.9-1.1,9.3-3.3,13.1c-2.2,3.8-5.3,6.8-9.2,9C660.3,326.2,655.9,327.3,651,327.3z M651,319.5c3.2,0,6-0.7,8.6-2.1
				c2.5-1.4,4.5-3.5,5.9-6.1c1.4-2.6,2.2-5.7,2.2-9.2c0-3.6-0.7-6.6-2.2-9.2c-1.4-2.6-3.4-4.6-5.9-6c-2.5-1.4-5.4-2.1-8.6-2.1
				s-6,0.7-8.5,2.1c-2.5,1.4-4.5,3.4-6,6c-1.5,2.6-2.2,5.7-2.2,9.2c0,3.5,0.7,6.6,2.2,9.2c1.5,2.6,3.5,4.7,6,6.1
				C644.9,318.7,647.8,319.5,651,319.5z"/>
			<path class="st7" d="M687.7,326.8v-69.3h9v33l-0.9,11.5l0.6,11.5v13.4H687.7z M713.9,327.3c-4.2,0-8.1-0.9-11.5-2.8
				c-3.4-1.9-6.1-4.7-8-8.5c-2-3.7-2.9-8.4-2.9-14c0-5.6,1-10.3,3-14c2-3.7,4.7-6.5,8.1-8.4c3.4-1.9,7.1-2.8,11.3-2.8
				c4.9,0,9.2,1.1,12.9,3.2c3.7,2.1,6.7,5.1,8.9,8.8c2.2,3.8,3.3,8.2,3.3,13.2c0,5-1.1,9.5-3.3,13.3c-2.2,3.8-5.1,6.8-8.9,8.9
				C723.1,326.3,718.8,327.3,713.9,327.3z M713.2,319.5c3.2,0,6-0.7,8.6-2.1c2.5-1.4,4.5-3.5,6-6.1c1.5-2.6,2.2-5.7,2.2-9.2
				c0-3.6-0.7-6.6-2.2-9.2c-1.5-2.6-3.5-4.6-6-6c-2.5-1.4-5.4-2.1-8.6-2.1c-3.1,0-5.9,0.7-8.5,2.1s-4.5,3.4-6,6
				c-1.5,2.6-2.2,5.7-2.2,9.2c0,3.5,0.7,6.6,2.2,9.2c1.5,2.6,3.5,4.7,6,6.1C707.3,318.7,710.1,319.5,713.2,319.5z"/>
			<path class="st7" d="M764,327.3c-3.7,0-6.9-0.6-9.7-1.9c-2.8-1.2-4.9-3-6.4-5.2c-1.5-2.2-2.2-4.7-2.2-7.5c0-2.7,0.6-5.1,1.9-7.3
				c1.3-2.2,3.4-3.9,6.3-5.2c2.9-1.3,6.8-2,11.7-2h15.7v6.4H766c-4.5,0-7.5,0.7-9.1,2.2c-1.6,1.5-2.3,3.3-2.3,5.4
				c0,2.4,1,4.4,2.9,5.8c1.9,1.5,4.6,2.2,8,2.2c3.4,0,6.3-0.7,8.8-2.2c2.5-1.5,4.3-3.7,5.5-6.5l1.8,6.2c-1.2,2.9-3.3,5.2-6.3,7
				C772.4,326.5,768.6,327.3,764,327.3z M780.3,326.8v-10.5l-0.5-2v-17.9c0-3.8-1.1-6.7-3.3-8.8c-2.2-2.1-5.5-3.1-10-3.1
				c-2.9,0-5.8,0.5-8.6,1.4c-2.8,1-5.2,2.3-7.1,3.9l-3.7-6.7c2.6-2.1,5.6-3.6,9.2-4.7c3.6-1.1,7.3-1.6,11.3-1.6c6.8,0,12,1.7,15.7,5
				c3.7,3.3,5.5,8.4,5.5,15.1v29.9H780.3z"/>
			<path class="st7" d="M804,326.8v-69.3h9v69.3H804z"/>
			<path class="st7" d="M872.8,327.5c-5,0-9.8-0.8-14.3-2.3c-4.5-1.5-8.1-3.5-10.7-5.9l3.5-7.3c2.5,2.2,5.7,4,9.5,5.4
				c3.9,1.4,7.9,2.2,12.1,2.2c3.8,0,6.9-0.4,9.3-1.3c2.4-0.9,4.1-2.1,5.2-3.6c1.1-1.5,1.7-3.3,1.7-5.2c0-2.2-0.7-4.1-2.2-5.4
				c-1.5-1.4-3.4-2.5-5.7-3.3c-2.3-0.8-4.9-1.6-7.7-2.2c-2.8-0.6-5.6-1.4-8.5-2.2c-2.8-0.8-5.4-1.9-7.8-3.2
				c-2.3-1.3-4.2-3.1-5.7-5.3c-1.4-2.2-2.1-5.1-2.1-8.6c0-3.4,0.9-6.5,2.7-9.3c1.8-2.8,4.5-5.1,8.2-6.8c3.7-1.7,8.4-2.6,14.2-2.6
				c3.8,0,7.6,0.5,11.3,1.5c3.7,1,7,2.4,9.7,4.3l-3.1,7.5c-2.8-1.9-5.8-3.2-8.9-4.1c-3.1-0.8-6.1-1.3-9.1-1.3
				c-3.7,0-6.7,0.5-9.1,1.4c-2.4,0.9-4.1,2.2-5.2,3.7c-1.1,1.6-1.6,3.3-1.6,5.2c0,2.3,0.7,4.1,2.2,5.5c1.5,1.4,3.4,2.5,5.7,3.3
				c2.3,0.8,4.9,1.5,7.7,2.2c2.8,0.7,5.6,1.4,8.5,2.2c2.8,0.8,5.4,1.9,7.8,3.2c2.3,1.3,4.2,3.1,5.7,5.2c1.4,2.2,2.2,5,2.2,8.4
				c0,3.3-0.9,6.4-2.7,9.2c-1.8,2.8-4.6,5.1-8.4,6.8C883.3,326.6,878.6,327.5,872.8,327.5z"/>
			<path class="st7" d="M930.3,327.3c-5,0-9.4-1.1-13.3-3.3c-3.9-2.2-6.9-5.2-9.2-9c-2.2-3.8-3.4-8.2-3.4-13c0-4.9,1.1-9.3,3.4-13.1
				c2.2-3.8,5.3-6.8,9.2-8.9c3.9-2.1,8.3-3.2,13.3-3.2c4.9,0,9.3,1.1,13.2,3.2c3.9,2.2,6.9,5.1,9.2,8.9c2.2,3.8,3.3,8.1,3.3,13.1
				c0,4.9-1.1,9.3-3.3,13.1c-2.2,3.8-5.3,6.8-9.2,9C939.6,326.2,935.2,327.3,930.3,327.3z M930.3,319.5c3.2,0,6-0.7,8.6-2.1
				c2.5-1.4,4.5-3.5,5.9-6.1c1.4-2.6,2.1-5.7,2.1-9.2c0-3.6-0.7-6.6-2.1-9.2c-1.4-2.6-3.4-4.6-5.9-6c-2.5-1.4-5.4-2.1-8.6-2.1
				c-3.2,0-6,0.7-8.5,2.1c-2.5,1.4-4.5,3.4-6,6c-1.5,2.6-2.2,5.7-2.2,9.2c0,3.5,0.7,6.6,2.2,9.2c1.5,2.6,3.5,4.7,6,6.1
				C924.3,318.7,927.1,319.5,930.3,319.5z"/>
			<path class="st7" d="M967,326.8v-69.3h9v69.3H967z"/>
			<path class="st7" d="M1012.5,327.3c-4.2,0-8-0.8-11.2-2.3c-3.2-1.6-5.7-3.9-7.5-7.1c-1.8-3.2-2.7-7.2-2.7-12.1v-28.5h9v27.5
				c0,4.9,1.2,8.5,3.5,10.9c2.3,2.4,5.6,3.6,9.9,3.6c3.1,0,5.8-0.6,8.1-1.9c2.3-1.3,4.1-3.1,5.3-5.6c1.2-2.5,1.9-5.4,1.9-8.9v-25.6
				h9v49.5h-8.5v-13.4l1.4,3.6c-1.6,3.3-4.1,5.9-7.3,7.7C1020.2,326.4,1016.6,327.3,1012.5,327.3z"/>
			<path class="st7" d="M1046.5,284.6v-7.4h31.6v7.4H1046.5z M1070.6,327.3c-5,0-8.8-1.3-11.6-4c-2.7-2.7-4.1-6.5-4.1-11.5v-45.4h9
				v45c0,2.7,0.7,4.7,2,6.2c1.3,1.4,3.3,2.1,5.7,2.1c2.8,0,5.1-0.8,7-2.3l2.8,6.4c-1.4,1.2-3,2.1-4.9,2.6
				C1074.6,327,1072.6,327.3,1070.6,327.3z"/>
			<path class="st7" d="M1095.3,267.7c-1.7,0-3.2-0.6-4.3-1.7c-1.2-1.1-1.7-2.5-1.7-4.1c0-1.7,0.6-3.1,1.7-4.2
				c1.2-1.1,2.6-1.7,4.3-1.7c1.7,0,3.2,0.5,4.3,1.6c1.2,1.1,1.7,2.4,1.7,4.1c0,1.7-0.6,3.1-1.7,4.3
				C1098.6,267.1,1097.2,267.7,1095.3,267.7z M1090.9,326.8v-49.5h9v49.5H1090.9z"/>
			<path class="st7" d="M1136.8,327.3c-5,0-9.4-1.1-13.3-3.3c-3.9-2.2-6.9-5.2-9.2-9c-2.2-3.8-3.4-8.2-3.4-13
				c0-4.9,1.1-9.3,3.4-13.1c2.2-3.8,5.3-6.8,9.2-8.9c3.9-2.1,8.3-3.2,13.3-3.2c4.9,0,9.3,1.1,13.2,3.2c3.9,2.2,6.9,5.1,9.2,8.9
				c2.2,3.8,3.3,8.1,3.3,13.1c0,4.9-1.1,9.3-3.3,13.1c-2.2,3.8-5.3,6.8-9.2,9C1146.1,326.2,1141.7,327.3,1136.8,327.3z
				 M1136.8,319.5c3.2,0,6-0.7,8.6-2.1c2.5-1.4,4.5-3.5,5.9-6.1c1.4-2.6,2.1-5.7,2.1-9.2c0-3.6-0.7-6.6-2.1-9.2
				c-1.4-2.6-3.4-4.6-5.9-6c-2.5-1.4-5.4-2.1-8.6-2.1c-3.2,0-6,0.7-8.5,2.1c-2.5,1.4-4.5,3.4-6,6c-1.5,2.6-2.2,5.7-2.2,9.2
				c0,3.5,0.7,6.6,2.2,9.2c1.5,2.6,3.5,4.7,6,6.1C1130.7,318.7,1133.6,319.5,1136.8,319.5z"/>
			<path class="st7" d="M1173.5,326.8v-49.5h8.6v13.4l-1.4-3.6c1.6-3.2,4.1-5.8,7.5-7.6c3.4-1.8,7.3-2.7,11.8-2.7
				c4,0,7.6,0.8,10.7,2.3c3.1,1.6,5.5,3.9,7.2,7.1c1.7,3.2,2.6,7.2,2.6,12.1v28.5h-9v-27.5c0-4.8-1.2-8.4-3.5-10.8
				c-2.3-2.4-5.6-3.6-9.9-3.6c-3.2,0-5.9,0.6-8.3,1.9c-2.4,1.2-4.2,3.1-5.5,5.5c-1.3,2.4-1.9,5.5-1.9,9.1v25.5H1173.5z"/>
			<path class="st7" d="M1249.9,327.3c-4.1,0-8-0.6-11.7-1.7c-3.7-1.1-6.6-2.5-8.7-4.1l3.7-7.1c2.1,1.4,4.7,2.6,7.9,3.6
				c3.1,1,6.3,1.5,9.5,1.5c4.2,0,7.2-0.6,9-1.8c1.8-1.2,2.8-2.8,2.8-5c0-1.6-0.6-2.8-1.7-3.6c-1.1-0.9-2.6-1.5-4.4-2
				c-1.8-0.4-3.9-0.8-6.1-1.2c-2.2-0.3-4.5-0.8-6.7-1.3c-2.2-0.5-4.3-1.3-6.2-2.2c-1.9-1-3.4-2.3-4.5-4c-1.1-1.7-1.7-4-1.7-6.9
				c0-3,0.8-5.6,2.5-7.9c1.7-2.2,4.1-4,7.2-5.2c3.1-1.2,6.7-1.8,11-1.8c3.2,0,6.5,0.4,9.9,1.2c3.3,0.8,6.1,1.9,8.2,3.3l-3.8,7.1
				c-2.2-1.5-4.6-2.5-7-3.1c-2.4-0.6-4.9-0.8-7.3-0.8c-3.9,0-6.9,0.6-8.8,1.9c-1.9,1.3-2.9,2.9-2.9,4.9c0,1.7,0.6,3,1.7,3.9
				c1.2,0.9,2.6,1.6,4.5,2.1c1.8,0.5,3.9,0.9,6.1,1.3c2.2,0.3,4.5,0.8,6.7,1.3c2.2,0.5,4.3,1.3,6.1,2.2c1.8,0.9,3.3,2.2,4.5,3.9
				c1.2,1.7,1.7,3.9,1.7,6.7c0,3-0.9,5.6-2.6,7.8c-1.7,2.2-4.2,3.9-7.4,5.1C1258.2,326.7,1254.4,327.3,1249.9,327.3z"/>
		</g>
	</g>
</g>
</svg>
